<?xml version="1.0" encoding="UTF-8" standalone="no"?>
<svg xmlns:svg="http://www.w3.org/2000/svg" xmlns="http://www.w3.org/2000/svg" width="105" height="105" version="1.1">
  <g transform="translate(2,-51)">
    <path style="fill: #fff; stroke-width:0" d="M 40.629444,98.18973 c 7.89065,3.90027 12.231028,2.81327 20.273618,-0.69116 3.984971,-1.73638 6.507543,6.79893 5.989938,11.05833 -0.225826,1.8583 6.00444,2.0583 6.285162,5.1458 0.295287,3.2477 -1.515386,3.9398 -1.014334,5.8567 1.822387,6.9718 15.408604,9.9221 8.276195,18.3153 -7.503479,8.8299 -15.47822,-0.744 -20.486439,-1.9582 -3.657843,-0.8868 -8.27875,0.9169 -10.569625,3.9724 -4.947467,6.5987 0.05019,11.465 -10.13681,12.4406 -5.314937,0.5091 -11.730634,-4.9867 -10.367202,-12.2102 0.788547,-4.1778 -4.316459,-7.3347 -3.68611,-12.2103 0.473546,-3.6628 -2.925327,-8.1174 -0.691141,-11.0583 1.56712,-2.0629 5.55302,-0.028 7.602601,-1.6127 5.026681,-3.8858 1.346248,-20.59621 8.524147,-17.04827 z" />
    <path style="fill: #fff; stroke-width:0" d="M 33.717984,53.03482 c 3.161191,9.52539 9.050963,8.58924 9.445656,14.28369 1.000052,14.42841 -2.278142,13.32614 -2.994969,20.04325 -0.469702,4.40146 -0.347654,7.20707 -2.994957,7.37222 -2.196114,0.137 -2.178272,-3.82425 -3.225349,-5.75954 -2.762344,-5.10556 -6.663985,-2.50852 -8.063374,-15.43561 -0.504432,-4.65972 -0.416496,-7.48651 4.377251,-13.36216 3.803848,-4.66233 2.622738,-9.65189 3.455742,-7.14185 z" />
    <path style="fill: #fff; stroke-width:0" d="M 76.597006,54.94536 c 1.895293,-3.50814 -0.177368,5.69321 0.202423,8.91742 0.710971,6.03565 2.952356,11.14006 0.921534,16.12675 -2.325051,5.70915 -5.874587,8.21133 -10.367202,13.36217 -1.750062,2.00647 -3.1434,-2.09547 -4.377251,-6.68109 -1.186786,-4.4107 -1.109623,-9.33527 -0.691153,-14.51407 0.398021,-4.92569 8.09502,-5.31035 10.367202,-10.59757 0.963141,-2.24115 1.755867,-2.56258 3.944447,-6.61361 z" />
    <path style="fill: #fff; stroke-width:0" d="M 0.31257522,82.9845 c 0.49839391,1.23368 2.60982378,4.59064 4.63558838,6.1808 2.9479566,2.31406 6.8415344,-0.6376 10.3392444,4.41678 3.026643,4.37365 4.335296,9.55082 4.838025,15.20522 0.186477,2.0974 3.882766,4.3889 2.371303,5.855 -2.788934,2.7051 -5.702844,-2.7066 -10.665057,-4.7031 -4.4747728,-1.8003 -8.1261651,-2.8148 -11.39572771,-8.9174 -1.38478445,-2.58468 1.23653451,-5.77796 1.23096111,-8.71021 -0.00645,-3.14163 -2.53111239,-12.24001 -1.35433718,-9.32709 z" />
    <path style="fill: #fff; stroke-width:0" d="M 94.769232,83.42889 c -2.112024,4.47897 -0.298177,10.34975 -1.843055,15.2216 -1.625757,5.12691 -5.738619,6.58961 -9.445668,8.75451 -1.740657,1.0165 -3.968509,2.3799 -5.759546,1.8431 -2.942422,-0.882 -0.211505,-6.0659 0,-9.2153 0.311621,-4.64025 2.528248,-7.6942 5.989939,-11.51912 1.616248,-1.78584 4.24247,0.77929 5.568682,-0.81453 1.987267,-2.38824 6.334909,-6.06279 5.489648,-4.27026 z" />
    <path style="fill: #fff; stroke-width:0" d="M 97.764201,110.1696 c -1.416238,5.176 0.21935,9.1202 -1.612675,13.1318 -1.332611,2.918 -3.253139,6.884 -6.450699,7.1418 -3.183729,0.2567 -6.775737,-2.8743 -7.479224,-5.9899 -0.766098,-3.3929 1.880314,-7.1623 4.551742,-9.3898 1.818323,-1.5162 5.439655,-0.1434 6.843985,-1.8989 1.419761,-1.7748 4.596872,-4.6397 4.146871,-2.995 z" />
  </g>
</svg>