<?xml version="1.0" encoding="UTF-8" standalone="no"?>
<svg xmlns:svg="http://www.w3.org/2000/svg" xmlns="http://www.w3.org/2000/svg" width="330" height="105" version="1.1">
  <defs>
    <style type="text/css">
    .logo { fill: #000; stroke-width: 0; } 
    </style>
  </defs>
  <g transform="translate(2,-51)">
    <path class="logo" d="M 40.629444,98.18973 c 7.89065,3.90027 12.231028,2.81327 20.273618,-0.69116 3.984971,-1.73638 6.507543,6.79893 5.989938,11.05833 -0.225826,1.8583 6.00444,2.0583 6.285162,5.1458 0.295287,3.2477 -1.515386,3.9398 -1.014334,5.8567 1.822387,6.9718 15.408604,9.9221 8.276195,18.3153 -7.503479,8.8299 -15.47822,-0.744 -20.486439,-1.9582 -3.657843,-0.8868 -8.27875,0.9169 -10.569625,3.9724 -4.947467,6.5987 0.05019,11.465 -10.13681,12.4406 -5.314937,0.5091 -11.730634,-4.9867 -10.367202,-12.2102 0.788547,-4.1778 -4.316459,-7.3347 -3.68611,-12.2103 0.473546,-3.6628 -2.925327,-8.1174 -0.691141,-11.0583 1.56712,-2.0629 5.55302,-0.028 7.602601,-1.6127 5.026681,-3.8858 1.346248,-20.59621 8.524147,-17.04827 z" />
    <path class="logo" d="M 33.717984,53.03482 c 3.161191,9.52539 9.050963,8.58924 9.445656,14.28369 1.000052,14.42841 -2.278142,13.32614 -2.994969,20.04325 -0.469702,4.40146 -0.347654,7.20707 -2.994957,7.37222 -2.196114,0.137 -2.178272,-3.82425 -3.225349,-5.75954 -2.762344,-5.10556 -6.663985,-2.50852 -8.063374,-15.43561 -0.504432,-4.65972 -0.416496,-7.48651 4.377251,-13.36216 3.803848,-4.66233 2.622738,-9.65189 3.455742,-7.14185 z" />
    <path class="logo" d="M 76.597006,54.94536 c 1.895293,-3.50814 -0.177368,5.69321 0.202423,8.91742 0.710971,6.03565 2.952356,11.14006 0.921534,16.12675 -2.325051,5.70915 -5.874587,8.21133 -10.367202,13.36217 -1.750062,2.00647 -3.1434,-2.09547 -4.377251,-6.68109 -1.186786,-4.4107 -1.109623,-9.33527 -0.691153,-14.51407 0.398021,-4.92569 8.09502,-5.31035 10.367202,-10.59757 0.963141,-2.24115 1.755867,-2.56258 3.944447,-6.61361 z" />
    <path class="logo" d="M 0.31257522,82.9845 c 0.49839391,1.23368 2.60982378,4.59064 4.63558838,6.1808 2.9479566,2.31406 6.8415344,-0.6376 10.3392444,4.41678 3.026643,4.37365 4.335296,9.55082 4.838025,15.20522 0.186477,2.0974 3.882766,4.3889 2.371303,5.855 -2.788934,2.7051 -5.702844,-2.7066 -10.665057,-4.7031 -4.4747728,-1.8003 -8.1261651,-2.8148 -11.39572771,-8.9174 -1.38478445,-2.58468 1.23653451,-5.77796 1.23096111,-8.71021 -0.00645,-3.14163 -2.53111239,-12.24001 -1.35433718,-9.32709 z" />
    <path class="logo" d="M 94.769232,83.42889 c -2.112024,4.47897 -0.298177,10.34975 -1.843055,15.2216 -1.625757,5.12691 -5.738619,6.58961 -9.445668,8.75451 -1.740657,1.0165 -3.968509,2.3799 -5.759546,1.8431 -2.942422,-0.882 -0.211505,-6.0659 0,-9.2153 0.311621,-4.64025 2.528248,-7.6942 5.989939,-11.51912 1.616248,-1.78584 4.24247,0.77929 5.568682,-0.81453 1.987267,-2.38824 6.334909,-6.06279 5.489648,-4.27026 z" />
    <path class="logo" d="M 97.764201,110.1696 c -1.416238,5.176 0.21935,9.1202 -1.612675,13.1318 -1.332611,2.918 -3.253139,6.884 -6.450699,7.1418 -3.183729,0.2567 -6.775737,-2.8743 -7.479224,-5.9899 -0.766098,-3.3929 1.880314,-7.1623 4.551742,-9.3898 1.818323,-1.5162 5.439655,-0.1434 6.843985,-1.8989 1.419761,-1.7748 4.596872,-4.6397 4.146871,-2.995 z" />
  </g>
  <g transform="translate(110, 80)">
    <path class="logo" d="m 6.21875,-29.40625 c -4.2e-6,-3.874965 0.749995,-7.765586 2.25,-11.671875 1.0937424,-2.812454 2.624991,-5.390577 4.59375,-7.734375 1.968737,-2.343697 4.437484,-4.429632 7.40625,-6.257812 2.968729,-1.828067 5.999976,-3.140565 9.09375,-3.9375 3.093719,-0.796814 6.546841,-1.195251 10.359375,-1.195313 6.499956,6.2e-5 12.140575,1.218811 16.921875,3.65625 4.78119,2.437556 8.546812,5.734428 11.296875,9.890625 3.56243,5.406293 5.343679,11.078163 5.34375,17.015625 -7.1e-5,8.843773 -3.007881,16.42189 -9.023438,22.734375 C 58.445256,-0.59374741 50.078077,2.5624994 39.359375,2.5625 36.70309,2.5624994 34.218718,2.3906246 31.90625,2.046875 30.156222,1.7968752 28.624973,1.4531255 27.3125,1.015625 24.937477,0.23437677 23.609353,-0.21874778 23.328125,-0.34375 19.921857,-2.2812457 17.187485,-4.2656187 15.125,-6.296875 13.062489,-8.3281147 11.312491,-10.624987 9.875,-13.1875 9.0937429,-14.624983 8.2031188,-17.218731 7.203125,-20.96875 6.5468705,-23.374975 6.2187458,-26.187472 6.21875,-29.40625 z M 38.140625,-55.5625 c -2.718783,5.8e-5 -5.125031,0.632869 -7.21875,1.898438 -2.093777,1.265679 -3.6719,2.664115 -4.734375,4.195312 -1.781272,2.593799 -3.046896,5.429734 -3.796875,8.507813 -0.75002,3.078164 -1.125019,6.820348 -1.125,11.226562 -1.9e-5,2.687529 0.109356,4.609402 0.328125,5.765625 0.06248,0.375026 0.15623,1.01565 0.28125,1.921875 0.28123,2.312522 0.609355,4.00002 0.984375,5.0625 1.343728,3.968765 2.296852,6.421888 2.859375,7.359375 0.937475,1.59376 2.328099,3.1718835 4.171875,4.734375 0.937471,0.8125061 2.296845,1.5546928 4.078125,2.2265625 1.781216,0.671879 3.562464,1.0078162 5.34375,1.0078125 3.374959,3.7e-6 6.507769,-0.7890581 9.398437,-2.3671875 2.890576,-1.5781174 5.210886,-4.2578022 6.960938,-8.0390625 1.749945,-3.781232 2.624944,-8.703102 2.625,-14.765625 C 58.296819,-29.328094 58.124944,-32.718715 57.78125,-37 l -0.234375,-0.890625 c -0.09381,-0.24996 -0.250055,-0.890584 -0.46875,-1.921875 -1.156304,-5.124953 -3.367239,-9.031199 -6.632813,-11.71875 -3.26567,-2.687444 -7.367228,-4.031192 -12.304687,-4.03125 z" />
    <path class="logo" d="m 80.703125,-33.8125 c 3.687494,-1.562463 6.351553,-3.093711 7.992187,-4.59375 1.640613,-1.499958 3.398424,-3.937456 5.273438,-7.3125 l 2.625,0 c 0.281231,0.812547 0.421856,1.671921 0.421875,2.578125 -1.9e-5,1.625044 -0.01564,2.890667 -0.04687,3.796875 l -0.140625,2.765625 c -1.9e-5,0.156288 0.01561,0.515663 0.04687,1.078125 l 1.078125,0.04687 c 0.15623,3.7e-5 1.624978,-0.06246 4.406255,-0.1875 0.21872,3.8e-5 1.39059,-0.03121 3.51562,-0.09375 0.18747,0.843787 0.28122,1.593786 0.28125,2.25 -3e-5,0.718785 -0.1094,1.562534 -0.32812,2.53125 -1.03128,0.125033 -1.81253,0.187533 -2.34375,0.1875 -0.25003,3.3e-5 -0.75003,-0.03122 -1.5,-0.09375 l -2.437505,0 -0.84375,-0.04687 -2.25,0.09375 -0.09375,17.90625 c -0.03127,3.4687614 0.03904,5.6328218 0.210937,6.4921875 0.171857,0.8593826 0.539044,1.6796942 1.101563,2.4609375 0.71873,0.3437556 1.515604,0.5156304 2.390625,0.515625 0.84373,5.4e-6 1.46873,-0.07812 1.875,-0.234375 0.40623,-0.1562442 1.09372,-0.6093687 2.0625,-1.359375 0.18747,-0.1562428 0.48435,-0.3749926 0.89063,-0.65625 0.74997,0.5937571 1.35934,1.1875065 1.82812,1.78125 l 0.1875,0.5625 c -1.09378,1.7187536 -2.63284,3.07031477 -4.61719,4.0546875 -1.98439,0.9843753 -4.10158,1.4765623 -6.35156,1.4765625 -2.906265,-2e-7 -5.265638,-0.9218743 -7.078125,-2.765625 -1.812509,-1.8437456 -2.718758,-4.7031177 -2.71875,-8.578125 l 0.1875,-8.25 0,-13.359375 -1.453125,-0.04687 -3.375,0.04687 -0.609375,-0.140625 c -0.187503,-0.281217 -0.281253,-0.546842 -0.28125,-0.796875 -3e-6,-0.187466 0.03125,-0.89059 0.09375,-2.109375 z" />
    <path class="logo" d="m 110.70313,-33.8125 c 3.68749,-1.562463 6.35155,-3.093711 7.99218,-4.59375 1.64062,-1.499958 3.39843,-3.937456 5.27344,-7.3125 l 2.625,0 c 0.28123,0.812547 0.42186,1.671921 0.42188,2.578125 -2e-5,1.625044 -0.0157,2.890667 -0.0469,3.796875 l -0.14062,2.765625 c -2e-5,0.156288 0.0156,0.515663 0.0469,1.078125 l 1.07813,0.04687 c 0.15622,3.7e-5 1.62497,-0.06246 4.40624,-0.1875 0.21873,3.8e-5 1.3906,-0.03121 3.51563,-0.09375 0.18747,0.843787 0.28122,1.593786 0.28125,2.25 -3e-5,0.718785 -0.1094,1.562534 -0.32813,2.53125 -1.03127,0.125033 -1.81252,0.187533 -2.34375,0.1875 -0.25002,3.3e-5 -0.75002,-0.03122 -1.5,-0.09375 l -2.4375,0 -0.84375,-0.04687 -2.24999,0.09375 -0.0937,17.90625 c -0.0313,3.4687614 0.039,5.6328218 0.21093,6.4921875 0.17186,0.8593826 0.53905,1.6796942 1.10157,2.4609375 0.71872,0.3437556 1.5156,0.5156304 2.39062,0.515625 0.84373,5.4e-6 1.46873,-0.07812 1.875,-0.234375 0.40623,-0.1562442 1.09372,-0.6093687 2.0625,-1.359375 0.18747,-0.1562428 0.48435,-0.3749926 0.89062,-0.65625 0.74998,0.5937571 1.35935,1.1875065 1.82813,1.78125 l 0.1875,0.5625 c -1.09378,1.7187536 -2.63284,3.07031477 -4.61719,4.0546875 -1.98439,0.9843753 -4.10158,1.4765623 -6.35156,1.4765625 -2.90627,-2e-7 -5.26564,-0.9218743 -7.07812,-2.765625 -1.81251,-1.8437456 -2.71876,-4.7031177 -2.71875,-8.578125 l 0.1875,-8.25 0,-13.359375 -1.45313,-0.04687 -3.375,0.04687 -0.60937,-0.140625 c -0.18751,-0.281217 -0.28126,-0.546842 -0.28125,-0.796875 -1e-5,-0.187466 0.0312,-0.89059 0.0937,-2.109375 z" />
    <path class="logo" d="m 141.96875,-23.125 c 0.8125,-2.656222 1.53124,-4.421845 2.15625,-5.296875 1.74999,-2.562467 3.61718,-4.562465 5.60156,-6 1.98436,-1.437462 3.77342,-2.390586 5.36719,-2.859375 2.06248,-0.59371 3.73435,-0.890585 5.01562,-0.890625 2.93748,4e-5 5.31248,0.226602 7.125,0.679688 1.81247,0.453164 3.3281,1.1016 4.54688,1.945312 1.74996,1.218786 3.15621,2.45316 4.21875,3.703125 1.06246,1.250033 1.92965,2.718781 2.60156,4.40625 0.67184,1.687528 1.03902,3.734401 1.10156,6.140625 L 174.5,-21.390625 c -1.43754,2.3e-5 -4.59378,-0.140601 -9.46875,-0.421875 -1.81253,-0.124976 -3.06252,-0.187476 -3.75,-0.1875 -0.21877,2.4e-5 -1.90627,0.01565 -5.0625,0.04687 l -4.03125,0 c -0.0625,0.437524 -0.0938,0.812523 -0.0937,1.125 -1e-5,1.656271 0.20311,3.398457 0.60937,5.226562 0.40624,1.828141 1.01561,3.437515 1.82813,4.828125 0.81248,1.3906369 1.82029,2.5859482 3.02344,3.585938 1.2031,1.0000082 2.44529,1.7187575 3.72656,2.15625 L 164,-4.140625 c 2.40622,6.1e-6 4.01559,-0.078119 4.82812,-0.234375 1.49997,-0.3124933 2.82028,-0.7109304 3.96094,-1.1953125 1.14059,-0.4843669 2.5234,-1.3046786 4.14844,-2.4609375 1.12496,0.8125092 2.06246,1.5468835 2.8125,2.203125 -2.75004,3.0312548 -5.6016,5.2265651 -8.55469,6.5859375 -2.95315,1.3593749 -6.25784,2.0390617 -9.91406,2.0390625 -2.46877,-8e-7 -4.48439,-0.2187506 -6.04688,-0.65625 -2.09376,-0.5624996 -3.98438,-1.42187372 -5.67187,-2.578125 -1.68751,-1.1562464 -3.14063,-2.593745 -4.35938,-4.3125 -1.21875,-1.7187415 -2.125,-3.4843648 -2.71875,-5.296875 -0.78125,-2.374986 -1.17187,-4.281234 -1.17187,-5.71875 0,-2.71873 0.21875,-5.171852 0.65625,-7.359375 z m 27.23437,-2.015625 c -0.0313,-1.749971 -0.37503,-3.421844 -1.03125,-5.015625 -0.65627,-1.593716 -1.6719,-2.835903 -3.04687,-3.726562 -1.37503,-0.890589 -2.76565,-1.335901 -4.17188,-1.335938 -2.09377,3.7e-5 -3.98439,0.921911 -5.67187,2.765625 -1.68752,1.843783 -2.64064,4.34378 -2.85938,7.5 l 10.6875,0.04687 c 0.68748,2.7e-5 1.65623,-0.04685 2.90625,-0.140625 0.90623,-0.09372 1.54685,-0.140598 1.92188,-0.140625 0.28122,2.7e-5 0.70309,0.01565 1.26562,0.04687 z" />
    <path class="logo" d="m 184.76562,-0.578125 c 0.40625,-0.34374708 0.9375,-0.5937468 1.59375,-0.75 1.59375,-0.3437463 3.10937,-0.9687457 4.54688,-1.875 0.28124,-0.749994 0.42187,-3.2812415 0.42187,-7.59375 0,-7.906229 -0.17188,-13.249974 -0.51562,-16.03125 -0.0625,-0.499971 -0.31251,-0.93747 -0.75,-1.3125 -0.78126,-0.406219 -1.84376,-0.765594 -3.1875,-1.078125 -0.625,-0.156219 -1,-0.499968 -1.125,-1.03125 l -0.14063,-1.734375 c 2.3125,-0.312466 4.40625,-1.101527 6.28125,-2.367187 1.87499,-1.265588 3.28124,-2.554649 4.21875,-3.867188 0.49999,-0.718709 0.93749,-1.265584 1.3125,-1.640625 L 200.70312,-40 c 0.15624,0.718791 0.23436,1.312541 0.23438,1.78125 -2e-5,0.34379 -0.0156,0.765664 -0.0469,1.265625 -0.0313,1.093788 -0.0469,2.000037 -0.0469,2.71875 -2e-5,0.343786 0.0156,1.64066 0.0469,3.890625 1.28124,-2.187465 2.21873,-3.656214 2.8125,-4.40625 0.28123,-0.343713 1.10936,-1.109337 2.48438,-2.296875 1.06248,-0.78121 2.2656,-1.171835 3.60937,-1.171875 1.65623,4e-5 3.09373,0.56254 4.3125,1.6875 1.21872,1.125037 1.8281,2.421911 1.82813,3.890625 -3e-5,1.468783 -0.46097,2.789094 -1.38281,3.960938 -0.92191,1.171904 -2.14847,1.757841 -3.67969,1.757812 -1.34378,2.9e-5 -2.75003,-0.562471 -4.21875,-1.6875 -0.87502,-0.687469 -1.57815,-1.031218 -2.10938,-1.03125 l -0.32812,0.04687 c -0.65627,0.218781 -1.25002,0.812531 -1.78125,1.78125 -0.87502,1.562528 -1.31252,3.187527 -1.3125,4.875 l 0.0937,1.265625 c 0.12498,2.312521 0.21873,7.734391 0.28125,16.265625 0.0937,0.7812566 0.39061,1.5625058 0.89062,2.34375 0.56248,0.4375046 1.1328,0.7500043 1.71094,0.9375 0.57811,0.1875039 1.58592,0.3437538 3.02344,0.46875 1.43747,0.1250035 2.31247,0.3203158 2.625,0.5859375 0.31247,0.2656278 0.46872,0.69531488 0.46875,1.2890625 -3e-5,0.34375144 -0.0938,0.796876 -0.28125,1.359375 l -4.40625,0 -8.95313,-0.46875 c -2.25001,9e-7 -4.29688,0.093751 -6.14062,0.28125 l -0.79688,0 c -0.21875,6e-7 -1.84375,0.078126 -4.875,0.234375 C 184.67187,1.1250009 184.625,0.75000125 184.625,0.5 c 0,-0.24999825 0.0469,-0.60937289 0.14062,-1.078125 z" />
  </g>
</svg>